<?xml version="1.0" encoding="UTF-8" standalone="no"?>


<svg
   version="1.1"
   id="svg1"
   width="190.56"
   height="70.199997"
   viewBox="0 0 190.56 70.199997"
   xmlns="http://www.w3.org/2000/svg"
   >
  <defs
     id="defs1">
    <clipPath
       clipPathUnits="userSpaceOnUse"
       id="clipPath2">
      <path
         d="m 458.359,456.391 c 6.973,-7.84 6.211,-19.793 -1.523,-26.766 -7.859,-6.945 -19.824,-6.191 -26.738,1.563 -6.961,7.8 -6.309,19.824 1.562,26.777 7.805,6.933 19.758,6.199 26.699,-1.574"
         id="path2" />
    </clipPath>
    <radialGradient
       fx="0"
       fy="0"
       cx="0"
       cy="0"
       r="1"
       gradientUnits="userSpaceOnUse"
       gradientTransform="matrix(14.1504,0,0,-14.1504,444.229,443.794)"
       id="radialGradient4">
      <stop
         style="stop-opacity:1;stop-color:#ffffff"
         offset="0"
         id="stop3" />
      <stop
         style="stop-opacity:1;stop-color:#008ac2"
         offset="1"
         id="stop4" />
    </radialGradient>
    <clipPath
       clipPathUnits="userSpaceOnUse"
       id="clipPath4">
      <path
         d="m 458.359,456.391 c 6.973,-7.84 6.211,-19.793 -1.523,-26.766 -7.859,-6.945 -19.824,-6.191 -26.738,1.563 -6.961,7.8 -6.309,19.824 1.562,26.777 7.805,6.933 19.758,6.199 26.699,-1.574"
         id="path4" />
    </clipPath>
    <clipPath
       clipPathUnits="userSpaceOnUse"
       id="clipPath6">
      <path
         d="m 520.461,482.445 c 36.492,-80.761 -49.543,-153.289 -123.496,-109.851 20.445,-5.774 58.457,-11.067 94.168,20.644 35.683,31.817 32.785,65.02 29.328,89.207"
         id="path6" />
    </clipPath>
    <linearGradient
       x1="0"
       y1="0"
       x2="1"
       y2="0"
       gradientUnits="userSpaceOnUse"
       gradientTransform="matrix(41.4272,-46.576,-207.642,-184.688,561.93,519.337)"
       spreadMethod="pad"
       id="linearGradient8">
      <stop
         style="stop-opacity:1;stop-color:#ffffff"
         offset="0"
         id="stop7" />
      <stop
         style="stop-opacity:1;stop-color:#008ac2"
         offset="1"
         id="stop8" />
    </linearGradient>
    <clipPath
       clipPathUnits="userSpaceOnUse"
       id="clipPath8">
      <path
         d="m 520.461,482.445 c 36.492,-80.761 -49.543,-153.289 -123.496,-109.851 20.445,-5.774 58.457,-11.067 94.168,20.644 35.683,31.817 32.785,65.02 29.328,89.207"
         id="path8" />
    </clipPath>
    <clipPath
       clipPathUnits="userSpaceOnUse"
       id="clipPath10">
      <path
         d="m 368.906,404.145 c -36.504,80.8 49.539,153.3 123.504,109.804 -20.484,5.801 -58.504,11.114 -94.168,-20.644 -35.715,-31.766 -32.82,-64.981 -29.336,-89.16"
         id="path10" />
    </clipPath>
    <linearGradient
       x1="0"
       y1="0"
       x2="1"
       y2="0"
       gradientUnits="userSpaceOnUse"
       gradientTransform="matrix(-41.4531,46.6051,207.658,184.702,327.451,367.226)"
       spreadMethod="pad"
       id="linearGradient12">
      <stop
         style="stop-opacity:1;stop-color:#ffffff"
         offset="0"
         id="stop11" />
      <stop
         style="stop-opacity:1;stop-color:#008ac2"
         offset="1"
         id="stop12" />
    </linearGradient>
    <clipPath
       clipPathUnits="userSpaceOnUse"
       id="clipPath12">
      <path
         d="m 368.906,404.145 c -36.504,80.8 49.539,153.3 123.504,109.804 -20.484,5.801 -58.504,11.114 -94.168,-20.644 -35.715,-31.766 -32.82,-64.981 -29.336,-89.16"
         id="path12" />
    </clipPath>
  </defs>
  
  <g
     id="g1">
    <path
       id="path1"
       d="m 458.359,456.391 c 6.973,-7.84 6.211,-19.793 -1.523,-26.766 -7.859,-6.945 -19.824,-6.191 -26.738,1.563 -6.961,7.8 -6.309,19.824 1.562,26.777 7.805,6.933 19.758,6.199 26.699,-1.574"
       style="fill:#008ac2;fill-opacity:1;fill-rule:nonzero;stroke:none"
       transform="matrix(0.13333333,0,0,-0.13333333,0,70.2)"
       clip-path="url(#clipPath2)" />
    <path
       id="path3"
       d="m 458.359,456.391 c 6.973,-7.84 6.211,-19.793 -1.523,-26.766 -7.859,-6.945 -19.824,-6.191 -26.738,1.563 -6.961,7.8 -6.309,19.824 1.562,26.777 7.805,6.933 19.758,6.199 26.699,-1.574"
       style="fill:url(#radialGradient4);fill-opacity:1;fill-rule:nonzero;stroke:none"
       transform="matrix(0.13333333,0,0,-0.13333333,0,70.2)"
       clip-path="url(#clipPath4)" />
    <path
       id="path5"
       d="m 520.461,482.445 c 36.492,-80.761 -49.543,-153.289 -123.496,-109.851 20.445,-5.774 58.457,-11.067 94.168,20.644 35.683,31.817 32.785,65.02 29.328,89.207"
       style="fill:#ffffff;fill-opacity:1;fill-rule:nonzero;stroke:none"
       transform="matrix(0.13333333,0,0,-0.13333333,0,70.2)"
       clip-path="url(#clipPath6)" />
    <path
       id="path7"
       d="m 520.461,482.445 c 36.492,-80.761 -49.543,-153.289 -123.496,-109.851 20.445,-5.774 58.457,-11.067 94.168,20.644 35.683,31.817 32.785,65.02 29.328,89.207"
       style="fill:url(#linearGradient8);fill-opacity:1;fill-rule:nonzero;stroke:none"
       transform="matrix(0.13333333,0,0,-0.13333333,0,70.2)"
       clip-path="url(#clipPath8)" />
    <path
       id="path9"
       d="m 368.906,404.145 c -36.504,80.8 49.539,153.3 123.504,109.804 -20.484,5.801 -58.504,11.114 -94.168,-20.644 -35.715,-31.766 -32.82,-64.981 -29.336,-89.16"
       style="fill:#ffffff;fill-opacity:1;fill-rule:nonzero;stroke:none"
       transform="matrix(0.13333333,0,0,-0.13333333,0,70.2)"
       clip-path="url(#clipPath10)" />
    <path
       id="path11"
       d="m 368.906,404.145 c -36.504,80.8 49.539,153.3 123.504,109.804 -20.484,5.801 -58.504,11.114 -94.168,-20.644 -35.715,-31.766 -32.82,-64.981 -29.336,-89.16"
       style="fill:url(#linearGradient12);fill-opacity:1;fill-rule:nonzero;stroke:none"
       transform="matrix(0.13333333,0,0,-0.13333333,0,70.2)"
       clip-path="url(#clipPath12)" />
    <path
       id="path13"
       d="m 184.52,319.809 c -8.844,19.484 -27.887,33.222 -57.977,33.222 -40.711,0 -65.4883,-27.488 -65.4883,-81.504 -0.8906,-54.027 21.2305,-81.547 67.2463,-81.547 27.441,0 44.277,7.071 62.441,34.239 l 56.621,-10.86 C 228.34,173.359 186.73,152.91 128.301,152.91 46.875,152.91 0,196.074 0,271.527 c 0,75.442 46.875,118.614 128.301,118.614 61.094,0 96.484,-19.825 111.504,-60.762 l -55.285,-9.57"
       style="fill:#FFFFFF;fill-opacity:1;fill-rule:nonzero;stroke:none"
       transform="matrix(0.13333333,0,0,-0.13333333,0,70.2)" />
    <path
       id="path14"
       d="m 290.664,152.91 h 54.8438 V 383.746 H 290.664 Z"
       style="fill:#FFFFFF;fill-opacity:1;fill-rule:nonzero;stroke:none"
       transform="matrix(0.13333333,0,0,-0.13333333,0,70.2)" />
    <path
       id="path15"
       d="m 417.246,152.91 h 54.8711 V 319.164 H 417.246 Z"
       style="fill:#FFFFFF;fill-opacity:1;fill-rule:nonzero;stroke:none"
       transform="matrix(0.13333333,0,0,-0.13333333,0,70.2)" />
    <path
       id="path16"
       d="M 604.934,287.191 V 152.91 h -54.868 v 134.281 h -31.89 v 31.973 h 31.453 v 20.461 c 0,35.828 19.891,47.332 65.059,47.332 h 36.269 V 354.965 H 635.93 c -23.02,0 -30.996,-5.125 -30.996,-17.899 v -17.902 h 46.445 v -31.973 h -46.445"
       style="fill:#FFFFFF;fill-opacity:1;fill-rule:nonzero;stroke:none"
       transform="matrix(0.13333333,0,0,-0.13333333,0,70.2)" />
    <path
       id="path17"
       d="M 773.313,287.191 V 152.91 h -54.844 v 134.281 h -31.867 v 31.973 h 31.406 v 20.461 c 0,35.828 19.902,47.332 65.097,47.332 h 36.25 v -31.992 h -15.031 c -23.023,0 -31.011,-5.125 -31.011,-17.899 v -17.902 h 46.484 v -31.973 h -46.484"
       style="fill:#FFFFFF;fill-opacity:1;fill-rule:nonzero;stroke:none"
       transform="matrix(0.13333333,0,0,-0.13333333,0,70.2)" />
    <path
       id="path18"
       d="m 942.148,325.543 c 62.422,0 100.062,-33.574 100.062,-86.305 0,-52.773 -37.64,-86.328 -100.062,-86.328 -62.375,0 -99.992,33.555 -99.992,86.328 0,52.731 37.617,86.305 99.992,86.305 z m 0,-31.973 c -30.507,0 -45.128,-17.226 -45.128,-54.332 0,-37.07 14.621,-54.355 45.128,-54.355 30.567,0 45.188,17.285 45.188,54.355 0,37.106 -14.621,54.332 -45.188,54.332"
       style="fill:#FFFFFF;fill-opacity:1;fill-rule:nonzero;stroke:none"
       transform="matrix(0.13333333,0,0,-0.13333333,0,70.2)" />
    <path
       id="path19"
       d="m 1080.46,152.91 v 166.254 h 50.45 v -28.437 h 0.88 c 13.27,19.804 31.86,30.976 64.6,31.621 v -41.856 c -2.62,0.305 -5.73,0.305 -9.73,0.305 -27.45,0 -51.35,-22.715 -51.35,-26.867 V 152.91 h -54.85"
       style="fill:#FFFFFF;fill-opacity:1;fill-rule:nonzero;stroke:none"
       transform="matrix(0.13333333,0,0,-0.13333333,0,70.2)" />
    <path
       id="path20"
       d="m 1420.23,156.113 h -46.43 l -2.7,17.91 c -19.43,-13.73 -37.59,-21.113 -62.35,-21.113 -61.05,0 -92.06,39.004 -92.06,90.82 0,40.915 32.71,81.813 92.06,81.813 18.55,0 44.69,-7.988 55.77,-18.535 h 0.82 v 79.922 h 54.89 z m -54.89,123.364 c -11.04,7.394 -24.72,14.093 -42.47,14.093 -32.76,0 -51.3,-19.179 -51.3,-54.332 0,-35.175 18.54,-54.355 51.3,-54.355 23.48,0 31.02,8.301 42.47,14.726 v 79.868"
       style="fill:#FFFFFF;fill-opacity:1;fill-rule:nonzero;stroke:none"
       transform="matrix(0.13333333,0,0,-0.13333333,0,70.2)" />
    <path
       id="path21"
       d="m 12.1758,78.3203 v 18.9063 h 9.3984 V 78.3203 h 17.8594 v -5.332 H 21.5742 V 30.5859 c 0,-3.8867 2.5078,-5.8789 8.3203,-5.8789 3.1133,0 6.5508,0.5664 9.5391,1.2305 v -5.5859 c -3.1133,-0.3321 -6.4258,-0.9766 -9.5391,-0.9766 -13.3203,0 -17.7187,3.0859 -17.7187,10.1367 V 72.9883 H 0 v 5.332 h 12.1758"
       style="fill:#FFFFFF;fill-opacity:1;fill-rule:nonzero;stroke:none"
       transform="matrix(0.13333333,0,0,-0.13333333,0,70.2)" />
    <path
       id="path22"
       d="m 67.5391,20.4883 v 57.832 h 9.3672 V 67.3047 h 0.3125 c 4.375,7.1094 13.1835,12.1289 23.4722,12.1289 h 4.243 v -6.4453 h -4.243 c -10.2887,0 -23.7847,-8.6524 -23.7847,-19.8047 V 20.4883 h -9.3672"
       style="fill:#FFFFFF;fill-opacity:1;fill-rule:nonzero;stroke:none"
       transform="matrix(0.13333333,0,0,-0.13333333,0,70.2)" />
    <path
       id="path23"
       d="M 178.105,20.4883 176.824,27.5 c -9.707,-5.4492 -17.051,-8.125 -29.566,-8.125 -12.656,0 -22.395,5.5664 -22.395,15.0977 0,15.8203 18.145,18.7109 52.129,24.0625 V 62.5 c 0,7.7148 -4.695,11.6016 -18.613,11.6016 -9.719,0 -17.676,-3.7696 -23.633,-10.4688 l -6.269,2.6758 c 7.082,9.3359 17.089,13.125 30.222,13.125 18.43,0 27.231,-5.332 27.231,-18.1641 V 31.0352 c 0,-2.8907 0.3,-6.6602 1.258,-10.5469 z m -1.55,32.6953 C 139.258,47.3633 134.27,41.9531 134.27,34.6289 c 0,-6.3672 6.121,-9.9219 14.546,-9.9219 8.762,0 19.582,3.6719 27.739,9.5899 v 18.8867"
       style="fill:#FFFFFF;fill-opacity:1;fill-rule:nonzero;stroke:none"
       transform="matrix(0.13333333,0,0,-0.13333333,0,70.2)" />
    <path
       id="path24"
       d="m 225.129,90.957 v 9.844 h 9.402 v -9.844 z m 9.402,-70.4687 h -9.402 v 57.832 h 9.402 v -57.832"
       style="fill:#FFFFFF;fill-opacity:1;fill-rule:nonzero;stroke:none"
       transform="matrix(0.13333333,0,0,-0.13333333,0,70.2)" />
    <path
       id="path25"
       d="m 273.398,20.4883 v 57.832 h 9.368 v -9.1015 c 8.789,6.4257 15.996,10.2148 27.886,10.2148 16.887,0 24.106,-6.9141 24.106,-19.4531 V 20.4883 h -9.367 v 38.8281 c 0,9.5703 -4.082,14.7852 -16.621,14.7852 -10.008,0 -15.633,-4.3555 -26.004,-11.0547 V 20.4883 h -9.368"
       style="fill:#FFFFFF;fill-opacity:1;fill-rule:nonzero;stroke:none"
       transform="matrix(0.13333333,0,0,-0.13333333,0,70.2)" />
    <path
       id="path26"
       d="m 373.621,90.957 v 9.844 h 9.414 v -9.844 z m 9.414,-70.4687 h -9.414 v 57.832 h 9.414 v -57.832"
       style="fill:#FFFFFF;fill-opacity:1;fill-rule:nonzero;stroke:none"
       transform="matrix(0.13333333,0,0,-0.13333333,0,70.2)" />
    <path
       id="path27"
       d="m 421.902,20.4883 v 57.832 h 9.407 v -9.1015 c 8.757,6.4257 15.964,10.2148 27.871,10.2148 16.906,0 24.113,-6.9141 24.113,-19.4531 V 20.4883 h -9.426 v 38.8281 c 0,9.5703 -4.054,14.7852 -16.582,14.7852 -10.012,0 -15.613,-4.3555 -25.976,-11.0547 V 20.4883 h -9.407"
       style="fill:#FFFFFF;fill-opacity:1;fill-rule:nonzero;stroke:none"
       transform="matrix(0.13333333,0,0,-0.13333333,0,70.2)" />
    <path
       id="path28"
       d="m 584.805,74.5117 c -4.258,0 -9.707,-0.2929 -13.02,-2.6953 3.598,-3.0469 5.793,-6.5039 5.793,-12.0703 0,-14.2578 -14.238,-20.2734 -31.445,-20.2734 -5.188,0 -9.102,0.7812 -13.172,1.7773 -5.156,-1.2891 -7.492,-3.418 -7.492,-5.5273 0,-3.3594 3.105,-5 25.183,-5 24.446,0 34.59,-5.5664 34.59,-15 C 585.242,7.22656 576.16,0 548.145,0 c -28.04,0 -35.54,6.81641 -35.54,13.6914 0,5.0195 2.833,9.2383 14.231,12.2461 v 0.2344 c -5.938,0.8789 -10.781,2.6367 -10.781,7.5586 0,4.8828 6.258,8.9062 12.207,9.7656 -7.364,3.5937 -11.758,9.1602 -11.758,15.1562 0,12.6563 12.551,20.7813 32.285,20.7813 7.805,0 13.77,-1.543 18.887,-4.0039 4.758,3.3398 10.683,5.1172 17.129,5.1172 z M 522.02,14.9219 c 0,-5.66409 7.804,-9.57034 24.738,-9.57034 20.312,0 29.101,3.90625 29.101,9.92184 0,4.7461 -5.351,9.4336 -29.726,9.4336 -18.496,0 -24.113,-4.7851 -24.113,-9.7851 z m 25.031,29.9414 c 13.117,0 21.125,4.3945 21.125,14.4531 0,10.0977 -8.008,14.7852 -21.125,14.7852 -13.156,0 -21.106,-5.8203 -21.106,-14.7852 0,-10.0586 9.7,-14.4531 21.106,-14.4531"
       style="fill:#FFFFFF;fill-opacity:1;fill-rule:nonzero;stroke:none"
       transform="matrix(0.13333333,0,0,-0.13333333,0,70.2)" />
    <path
       id="path29"
       d="m 799.785,62.0703 c -4.187,6.6992 -10.281,12.0313 -21.086,12.0313 -15.371,0 -25.664,-6.7969 -25.664,-24.7071 0,-14.7656 9.36,-24.6875 25.664,-24.6875 11.606,0 17.817,4.5703 24.375,12.0118 l 7.531,-2.5782 C 803.723,25.9375 794.172,19.375 778.699,19.375 c -22.847,0 -35.054,12.5586 -35.054,30.0195 0,19.9219 14.058,30.0391 35.054,30.0391 15.332,0 24.875,-6.1133 29.739,-15.6836 l -8.653,-1.6797"
       style="fill:#FFFFFF;fill-opacity:1;fill-rule:nonzero;stroke:none"
       transform="matrix(0.13333333,0,0,-0.13333333,0,70.2)" />
    <path
       id="path30"
       d="m 902.258,49.3945 c 0,-15.664 -8.117,-30.0195 -33.481,-30.0195 -25.386,0 -33.511,14.3555 -33.511,30.0195 0,15.7032 8.125,30.0391 33.511,30.0391 25.364,0 33.481,-14.3359 33.481,-30.0391 z m -57.617,0 c 0,-15.664 7.41,-24.6875 24.136,-24.6875 16.719,0 24.075,9.0235 24.075,24.6875 0,15.7032 -7.356,24.7071 -24.075,24.7071 -16.726,0 -24.136,-9.0039 -24.136,-24.7071"
       style="fill:#FFFFFF;fill-opacity:1;fill-rule:nonzero;stroke:none"
       transform="matrix(0.13333333,0,0,-0.13333333,0,70.2)" />
    <path
       id="path31"
       d="m 978.516,20.4883 -1.25,7.0117 c -9.637,-5.4492 -17.024,-8.125 -29.539,-8.125 -12.707,0 -22.368,5.5664 -22.368,15.0977 0,15.8203 18.118,18.7109 52.082,24.0625 V 62.5 c 0,7.7148 -4.636,11.6016 -18.586,11.6016 -9.722,0 -17.71,-3.7696 -23.66,-10.4688 l -6.218,2.6758 c 7.019,9.3359 17.039,13.125 30.183,13.125 18.469,0 27.188,-5.332 27.188,-18.1641 V 31.0352 c 0,-2.8907 0.351,-6.6602 1.269,-10.5469 z m -1.485,32.6953 c -37.285,-5.8203 -42.297,-11.2305 -42.297,-18.5547 0,-6.3672 6.094,-9.9219 14.563,-9.9219 8.75,0 19.531,3.6719 27.734,9.5899 v 18.8867"
       style="fill:#FFFFFF;fill-opacity:1;fill-rule:nonzero;stroke:none"
       transform="matrix(0.13333333,0,0,-0.13333333,0,70.2)" />
    <path
       id="path32"
       d="m 1074.74,62.0703 c -4.21,6.6992 -10.32,12.0313 -21.09,12.0313 -15.39,0 -25.72,-6.7969 -25.72,-24.7071 0,-14.7656 9.42,-24.6875 25.72,-24.6875 11.52,0 17.8,4.5703 24.35,12.0118 l 7.56,-2.5782 c -6.91,-8.2031 -16.44,-14.7656 -31.91,-14.7656 -22.88,0 -35.1,12.5586 -35.1,30.0195 0,19.9219 14.1,30.0391 35.1,30.0391 15.27,0 24.85,-6.1133 29.67,-15.6836 l -8.58,-1.6797"
       style="fill:#FFFFFF;fill-opacity:1;fill-rule:nonzero;stroke:none"
       transform="matrix(0.13333333,0,0,-0.13333333,0,70.2)" />
    <path
       id="path33"
       d="m 1117.38,20.4883 v 80.3127 h 9.42 V 69.2188 c 8.72,6.4257 15.94,10.2148 27.84,10.2148 16.89,0 24.08,-6.9141 24.08,-19.4531 V 20.4883 h -9.37 v 38.8281 c 0,9.5703 -4.06,14.7852 -16.61,14.7852 -10,0 -15.62,-4.3555 -25.94,-11.0547 V 20.4883 h -9.42"
       style="fill:#FFFFFF;fill-opacity:1;fill-rule:nonzero;stroke:none"
       transform="matrix(0.13333333,0,0,-0.13333333,0,70.2)" />
    <path
       id="path34"
       d="m 1227.02,90.957 v 9.844 h -9.37 v -9.844 z m 0,-12.6367 h -9.37 v -57.832 h 9.37 v 57.832"
       style="fill:#FFFFFF;fill-opacity:1;fill-rule:nonzero;stroke:none"
       transform="matrix(0.13333333,0,0,-0.13333333,0,70.2)" />
    <path
       id="path35"
       d="m 1265.97,20.4883 v 57.832 h 9.31 v -9.1015 c 8.79,6.4257 16,10.2148 27.85,10.2148 16.94,0 24.17,-6.9141 24.17,-19.4531 V 20.4883 h -9.43 v 38.8281 c 0,9.5703 -4.1,14.7852 -16.59,14.7852 -10,0 -15.65,-4.3555 -26,-11.0547 V 20.4883 h -9.31"
       style="fill:#FFFFFF;fill-opacity:1;fill-rule:nonzero;stroke:none"
       transform="matrix(0.13333333,0,0,-0.13333333,0,70.2)" />
    <path
       id="path36"
       d="m 1428.8,74.5117 c -4.28,0 -9.77,-0.2929 -13.02,-2.6953 3.59,-3.0469 5.81,-6.5039 5.81,-12.0703 0,-14.2578 -14.25,-20.2734 -31.49,-20.2734 -5.17,0 -9.03,0.7812 -13.16,1.7773 -5.14,-1.2891 -7.53,-3.418 -7.53,-5.5273 0,-3.3594 3.2,-5 25.24,-5 24.38,0 34.6,-5.5664 34.6,-15 C 1429.25,7.22656 1420.12,0 1392.15,0 c -28.02,0 -35.55,6.81641 -35.55,13.6914 0,5.0195 2.8,9.2383 14.24,12.2461 v 0.2344 c -5.93,0.8789 -10.81,2.6367 -10.81,7.5586 0,4.8828 6.32,8.9062 12.23,9.7656 -7.35,3.5937 -11.75,9.1602 -11.75,15.1562 0,12.6563 12.55,20.7813 32.26,20.7813 7.77,0 13.72,-1.543 18.97,-4.0039 4.65,3.3398 10.58,5.1172 17.06,5.1172 z m -62.81,-59.5898 c 0,-5.66409 7.81,-9.57034 24.72,-9.57034 20.38,0 29.13,3.90625 29.13,9.92184 0,4.7461 -5.29,9.4336 -29.74,9.4336 -18.49,0 -24.11,-4.7851 -24.11,-9.7851 z m 25.02,29.9414 c 13.12,0 21.16,4.3945 21.16,14.4531 0,10.0977 -8.04,14.7852 -21.16,14.7852 -13.11,0 -21.1,-5.8203 -21.1,-14.7852 0,-10.0586 9.66,-14.4531 21.1,-14.4531"
       style="fill:#FFFFFF;fill-opacity:1;fill-rule:nonzero;stroke:none"
       transform="matrix(0.13333333,0,0,-0.13333333,0,70.2)" />
    <path
       id="path37"
       d="m 654.414,20.4883 h 9.40234 v 57.832 H 654.414 Z"
       style="fill:#FFFFFF;fill-opacity:1;fill-rule:nonzero;stroke:none"
       transform="matrix(0.13333333,0,0,-0.13333333,0,70.2)" />
  </g>
</svg>
